<mxfile host="65bd71144e">
    <diagram id="N7BpWPBrls_A_gjUbuym" name="Page-1">
        <mxGraphModel dx="1365" dy="635" grid="1" gridSize="10" guides="1" tooltips="1" connect="1" arrows="1" fold="1" page="1" pageScale="1" pageWidth="827" pageHeight="1169" math="0" shadow="0">
            <root>
                <mxCell id="0"/>
                <mxCell id="1" parent="0"/>
                <mxCell id="40" value="" style="edgeStyle=none;html=1;strokeWidth=2;" edge="1" parent="1" source="41" target="43">
                    <mxGeometry relative="1" as="geometry"/>
                </mxCell>
                <mxCell id="41" value="selectSuit&lt;br&gt;(i, suitSize[], suitPrice[])" style="strokeWidth=2;html=1;shape=mxgraph.flowchart.terminator;whiteSpace=wrap;fillColor=#d80073;strokeColor=#A50040;shadow=1;fontColor=#ffffff;" vertex="1" parent="1">
                    <mxGeometry x="90" y="60" width="183.33" height="110" as="geometry"/>
                </mxCell>
                <mxCell id="42" value="" style="edgeStyle=none;html=1;strokeWidth=2;" edge="1" parent="1" source="43" target="45">
                    <mxGeometry relative="1" as="geometry"/>
                </mxCell>
                <mxCell id="43" value="&lt;span style=&quot;color: rgb(255, 255, 255);&quot;&gt;Prompt:&lt;/span&gt;&lt;br&gt;&lt;span style=&quot;color: rgb(255, 255, 255);&quot;&gt;&quot;Please choose your suit size (S/M/L/XL): &quot;&lt;/span&gt;" style="shape=parallelogram;perimeter=parallelogramPerimeter;whiteSpace=wrap;html=1;fixedSize=1;fillColor=#008a00;strokeColor=#005700;fontColor=#ffffff;strokeWidth=2;shadow=1;" vertex="1" parent="1">
                    <mxGeometry x="37.5" y="220" width="288.33" height="60" as="geometry"/>
                </mxCell>
                <mxCell id="44" value="" style="edgeStyle=none;html=1;strokeWidth=2;" edge="1" parent="1" source="45" target="47">
                    <mxGeometry relative="1" as="geometry"/>
                </mxCell>
                <mxCell id="45" value="Input:&lt;br&gt;suitSize[i]" style="shape=parallelogram;perimeter=parallelogramPerimeter;whiteSpace=wrap;html=1;fixedSize=1;fillColor=#e3c800;strokeColor=#B09500;fontColor=#FFFFFF;strokeWidth=2;shadow=1;labelBackgroundColor=none;labelBorderColor=none;textShadow=0;" vertex="1" parent="1">
                    <mxGeometry x="121.66499999999999" y="330" width="120" height="60" as="geometry"/>
                </mxCell>
                <mxCell id="46" value="" style="edgeStyle=none;html=1;strokeWidth=2;" edge="1" parent="1" source="47" target="48">
                    <mxGeometry relative="1" as="geometry"/>
                </mxCell>
                <mxCell id="47" value="&lt;div style=&quot;text-align: start;&quot;&gt;&lt;font style=&quot;color: rgb(255, 255, 255);&quot;&gt;&lt;font style=&quot;&quot; face=&quot;monospace&quot;&gt;&lt;span style=&quot;font-size: 0px; white-space-collapse: collapse;&quot;&gt;&lt;span style=&quot;white-space: pre;&quot;&gt;&#x9;&lt;/span&gt;std::transform(suitSize[i].begin(), suitSize[i].end(), suitSize[i].begin(), ::toupper)&lt;/span&gt;&lt;/font&gt;transform(suitSize[i].begin(), suitSize[i].end(), suitSize[i].begin(), ::toupper)&lt;/font&gt;&lt;/div&gt;" style="whiteSpace=wrap;html=1;fillColor=#fa6800;strokeColor=#C73500;fontColor=#000000;strokeWidth=2;shadow=1;labelBackgroundColor=none;labelBorderColor=none;" vertex="1" parent="1">
                    <mxGeometry x="-39.58" y="440" width="442.5" height="60" as="geometry"/>
                </mxCell>
                <mxCell id="48" value="&lt;span style=&quot;color: rgb(255, 255, 255);&quot;&gt;cin.fail() ||&lt;/span&gt;&lt;br&gt;&lt;span style=&quot;color: rgb(255, 255, 255);&quot;&gt;(suitSize[i] != &quot;S&quot; &amp;amp;&amp;amp; suitSize[i] != &quot;M&quot; &amp;amp;&amp;amp; suitSize[i] != &quot;L&quot; &amp;amp;&amp;amp; suitSize[i] != &quot;XL&quot;)&lt;/span&gt;" style="rhombus;whiteSpace=wrap;html=1;fillColor=#6a00ff;strokeColor=#3700CC;fontColor=#ffffff;strokeWidth=2;shadow=1;labelBackgroundColor=none;labelBorderColor=none;" vertex="1" parent="1">
                    <mxGeometry x="56.65999999999998" y="550" width="250" height="250" as="geometry"/>
                </mxCell>
                <mxCell id="49" value="" style="edgeStyle=none;html=1;strokeWidth=2;shadow=1;entryX=0;entryY=0.5;entryDx=0;entryDy=0;" edge="1" parent="1" target="50">
                    <mxGeometry relative="1" as="geometry">
                        <mxPoint x="306.65999999999997" y="674.5" as="sourcePoint"/>
                        <mxPoint x="356.65999999999997" y="674.5" as="targetPoint"/>
                    </mxGeometry>
                </mxCell>
                <mxCell id="50" value="&lt;span style=&quot;color: rgb(255, 255, 255);&quot;&gt;Prompt:&lt;/span&gt;&lt;br&gt;&lt;span style=&quot;color: rgb(255, 255, 255);&quot;&gt;&quot;Please enter a valid suit size (S/M/L/XL): &quot;&lt;/span&gt;" style="shape=parallelogram;perimeter=parallelogramPerimeter;whiteSpace=wrap;html=1;fixedSize=1;fillColor=#008a00;strokeColor=#005700;fontColor=#ffffff;strokeWidth=2;shadow=1;" vertex="1" parent="1">
                    <mxGeometry x="350" y="645" width="288.33" height="60" as="geometry"/>
                </mxCell>
                <mxCell id="51" value="" style="edgeStyle=none;html=1;strokeWidth=2;" edge="1" parent="1" target="52">
                    <mxGeometry relative="1" as="geometry">
                        <mxPoint x="494.5" y="705" as="sourcePoint"/>
                    </mxGeometry>
                </mxCell>
                <mxCell id="52" value="Input:&lt;br&gt;suitSize[i]" style="shape=parallelogram;perimeter=parallelogramPerimeter;whiteSpace=wrap;html=1;fixedSize=1;fillColor=#e3c800;strokeColor=#B09500;fontColor=#FFFFFF;strokeWidth=2;shadow=1;labelBackgroundColor=none;labelBorderColor=none;textShadow=0;" vertex="1" parent="1">
                    <mxGeometry x="434.16499999999996" y="755" width="120" height="60" as="geometry"/>
                </mxCell>
                <mxCell id="53" value="" style="edgeStyle=none;html=1;strokeWidth=2;" edge="1" parent="1" target="54">
                    <mxGeometry relative="1" as="geometry">
                        <mxPoint x="494.49" y="815" as="sourcePoint"/>
                    </mxGeometry>
                </mxCell>
                <mxCell id="54" value="&lt;div style=&quot;text-align: start;&quot;&gt;&lt;font style=&quot;color: rgb(255, 255, 255);&quot;&gt;&lt;font style=&quot;&quot; face=&quot;monospace&quot;&gt;&lt;span style=&quot;font-size: 0px; white-space-collapse: collapse;&quot;&gt;&lt;span style=&quot;white-space: pre;&quot;&gt;&#x9;&lt;/span&gt;std::transform(suitSize[i].begin(), suitSize[i].end(), suitSize[i].begin(), ::toupper)&lt;/span&gt;&lt;/font&gt;transform(suitSize[i].begin(), suitSize[i].end(), suitSize[i].begin(), ::toupper)&lt;/font&gt;&lt;/div&gt;" style="whiteSpace=wrap;html=1;fillColor=#fa6800;strokeColor=#C73500;fontColor=#000000;strokeWidth=2;shadow=1;labelBackgroundColor=none;labelBorderColor=none;" vertex="1" parent="1">
                    <mxGeometry x="272.91" y="865" width="442.5" height="60" as="geometry"/>
                </mxCell>
                <mxCell id="55" value="" style="edgeStyle=none;html=1;strokeWidth=2;entryX=0.5;entryY=0;entryDx=0;entryDy=0;" edge="1" parent="1" target="56">
                    <mxGeometry relative="1" as="geometry">
                        <mxPoint x="181.25" y="800" as="sourcePoint"/>
                        <mxPoint x="181.25" y="850" as="targetPoint"/>
                    </mxGeometry>
                </mxCell>
                <mxCell id="56" value="suitSize[i] == &quot;S&quot;" style="rhombus;whiteSpace=wrap;html=1;fillColor=#1ba1e2;fontColor=#ffffff;strokeColor=#006EAF;" vertex="1" parent="1">
                    <mxGeometry x="111.67999999999999" y="970" width="140" height="140" as="geometry"/>
                </mxCell>
                <mxCell id="57" value="" style="edgeStyle=none;html=1;strokeWidth=2;shadow=1;" edge="1" parent="1">
                    <mxGeometry relative="1" as="geometry">
                        <mxPoint x="272.91" y="894.67" as="sourcePoint"/>
                        <mxPoint x="180" y="895" as="targetPoint"/>
                    </mxGeometry>
                </mxCell>
                <mxCell id="58" value="suitPrice[i] = 2" style="whiteSpace=wrap;html=1;fillColor=#fa6800;strokeColor=#C73500;fontColor=#FFFFFF;" vertex="1" parent="1">
                    <mxGeometry x="306.66999999999996" y="1010" width="120" height="60" as="geometry"/>
                </mxCell>
                <mxCell id="59" value="" style="edgeStyle=none;html=1;strokeWidth=2;shadow=1;entryX=0;entryY=0.5;entryDx=0;entryDy=0;" edge="1" parent="1" target="58">
                    <mxGeometry relative="1" as="geometry">
                        <mxPoint x="251.67999999999995" y="1039.75" as="sourcePoint"/>
                        <mxPoint x="305.02" y="1040.25" as="targetPoint"/>
                    </mxGeometry>
                </mxCell>
                <mxCell id="60" value="" style="edgeStyle=none;html=1;strokeWidth=2;exitX=0.5;exitY=1;exitDx=0;exitDy=0;entryX=0.5;entryY=0;entryDx=0;entryDy=0;" edge="1" parent="1" source="56" target="62">
                    <mxGeometry relative="1" as="geometry">
                        <mxPoint x="181.59" y="1110" as="sourcePoint"/>
                        <mxPoint x="181.59" y="1160" as="targetPoint"/>
                    </mxGeometry>
                </mxCell>
                <mxCell id="61" value="" style="edgeStyle=none;html=1;strokeWidth=2;exitX=0.5;exitY=1;exitDx=0;exitDy=0;rounded=0;curved=0;" edge="1" parent="1">
                    <mxGeometry relative="1" as="geometry">
                        <mxPoint x="366.79999999999995" y="1070" as="sourcePoint"/>
                        <mxPoint x="180.01" y="1130" as="targetPoint"/>
                        <Array as="points">
                            <mxPoint x="367.01" y="1130"/>
                        </Array>
                    </mxGeometry>
                </mxCell>
                <mxCell id="62" value="suitSize[i] == &quot;M&quot;" style="rhombus;whiteSpace=wrap;html=1;fillColor=#1ba1e2;fontColor=#ffffff;strokeColor=#006EAF;" vertex="1" parent="1">
                    <mxGeometry x="111.67999999999999" y="1160" width="140" height="140" as="geometry"/>
                </mxCell>
                <mxCell id="63" value="suitPrice[i] = 4" style="whiteSpace=wrap;html=1;fillColor=#fa6800;strokeColor=#C73500;fontColor=#FFFFFF;" vertex="1" parent="1">
                    <mxGeometry x="306.66999999999996" y="1200" width="120" height="60" as="geometry"/>
                </mxCell>
                <mxCell id="64" value="" style="edgeStyle=none;html=1;strokeWidth=2;shadow=1;entryX=0;entryY=0.5;entryDx=0;entryDy=0;" edge="1" parent="1" target="63">
                    <mxGeometry relative="1" as="geometry">
                        <mxPoint x="251.67999999999995" y="1229.75" as="sourcePoint"/>
                        <mxPoint x="305.02" y="1230.25" as="targetPoint"/>
                    </mxGeometry>
                </mxCell>
                <mxCell id="65" value="" style="edgeStyle=none;html=1;strokeWidth=2;exitX=0.5;exitY=1;exitDx=0;exitDy=0;entryX=0.5;entryY=0;entryDx=0;entryDy=0;" edge="1" parent="1" source="62" target="67">
                    <mxGeometry relative="1" as="geometry">
                        <mxPoint x="181.59" y="1300" as="sourcePoint"/>
                        <mxPoint x="181.59" y="1350" as="targetPoint"/>
                    </mxGeometry>
                </mxCell>
                <mxCell id="66" value="" style="edgeStyle=none;html=1;strokeWidth=2;exitX=0.5;exitY=1;exitDx=0;exitDy=0;rounded=0;curved=0;" edge="1" parent="1">
                    <mxGeometry relative="1" as="geometry">
                        <mxPoint x="366.79999999999995" y="1260" as="sourcePoint"/>
                        <mxPoint x="180.01" y="1320" as="targetPoint"/>
                        <Array as="points">
                            <mxPoint x="367.01" y="1320"/>
                        </Array>
                    </mxGeometry>
                </mxCell>
                <mxCell id="67" value="suitSize[i] == &quot;L&quot;" style="rhombus;whiteSpace=wrap;html=1;fillColor=#1ba1e2;fontColor=#ffffff;strokeColor=#006EAF;" vertex="1" parent="1">
                    <mxGeometry x="111.67999999999999" y="1350" width="140" height="140" as="geometry"/>
                </mxCell>
                <mxCell id="68" value="suitPrice[i] = 6" style="whiteSpace=wrap;html=1;fillColor=#fa6800;strokeColor=#C73500;fontColor=#FFFFFF;" vertex="1" parent="1">
                    <mxGeometry x="306.66999999999996" y="1390" width="120" height="60" as="geometry"/>
                </mxCell>
                <mxCell id="69" value="" style="edgeStyle=none;html=1;strokeWidth=2;shadow=1;entryX=0;entryY=0.5;entryDx=0;entryDy=0;" edge="1" parent="1" target="68">
                    <mxGeometry relative="1" as="geometry">
                        <mxPoint x="251.67999999999995" y="1419.75" as="sourcePoint"/>
                        <mxPoint x="305.02" y="1420.25" as="targetPoint"/>
                    </mxGeometry>
                </mxCell>
                <mxCell id="70" value="" style="edgeStyle=none;html=1;strokeWidth=2;exitX=0.5;exitY=1;exitDx=0;exitDy=0;entryX=0.5;entryY=0;entryDx=0;entryDy=0;" edge="1" parent="1" source="67" target="72">
                    <mxGeometry relative="1" as="geometry">
                        <mxPoint x="181.59" y="1490" as="sourcePoint"/>
                        <mxPoint x="181.59" y="1540" as="targetPoint"/>
                    </mxGeometry>
                </mxCell>
                <mxCell id="71" value="" style="edgeStyle=none;html=1;strokeWidth=2;exitX=0.5;exitY=1;exitDx=0;exitDy=0;rounded=0;curved=0;" edge="1" parent="1">
                    <mxGeometry relative="1" as="geometry">
                        <mxPoint x="366.79999999999995" y="1450" as="sourcePoint"/>
                        <mxPoint x="180.01" y="1510" as="targetPoint"/>
                        <Array as="points">
                            <mxPoint x="367.01" y="1510"/>
                        </Array>
                    </mxGeometry>
                </mxCell>
                <mxCell id="72" value="suitSize[i] == &quot;XL&quot;" style="rhombus;whiteSpace=wrap;html=1;fillColor=#1ba1e2;fontColor=#ffffff;strokeColor=#006EAF;" vertex="1" parent="1">
                    <mxGeometry x="111.67999999999999" y="1540" width="140" height="140" as="geometry"/>
                </mxCell>
                <mxCell id="73" value="suitPrice[i] = 8" style="whiteSpace=wrap;html=1;fillColor=#fa6800;strokeColor=#C73500;fontColor=#FFFFFF;" vertex="1" parent="1">
                    <mxGeometry x="306.66999999999996" y="1580" width="120" height="60" as="geometry"/>
                </mxCell>
                <mxCell id="74" value="" style="edgeStyle=none;html=1;strokeWidth=2;shadow=1;entryX=0;entryY=0.5;entryDx=0;entryDy=0;" edge="1" parent="1" target="73">
                    <mxGeometry relative="1" as="geometry">
                        <mxPoint x="251.67999999999995" y="1609.75" as="sourcePoint"/>
                        <mxPoint x="305.02" y="1610.25" as="targetPoint"/>
                    </mxGeometry>
                </mxCell>
                <mxCell id="75" value="" style="edgeStyle=none;html=1;strokeWidth=2;exitX=0.5;exitY=1;exitDx=0;exitDy=0;" edge="1" parent="1" source="72">
                    <mxGeometry relative="1" as="geometry">
                        <mxPoint x="181.59" y="1680" as="sourcePoint"/>
                        <mxPoint x="181.59" y="1730" as="targetPoint"/>
                    </mxGeometry>
                </mxCell>
                <mxCell id="76" value="" style="edgeStyle=none;html=1;strokeWidth=2;exitX=0.5;exitY=1;exitDx=0;exitDy=0;rounded=0;curved=0;" edge="1" parent="1">
                    <mxGeometry relative="1" as="geometry">
                        <mxPoint x="366.79999999999995" y="1640" as="sourcePoint"/>
                        <mxPoint x="180.01" y="1700" as="targetPoint"/>
                        <Array as="points">
                            <mxPoint x="367.01" y="1700"/>
                        </Array>
                    </mxGeometry>
                </mxCell>
                <mxCell id="77" value="return suitPrice[i]" style="strokeWidth=2;html=1;shape=mxgraph.flowchart.terminator;whiteSpace=wrap;fillColor=#d80073;strokeColor=#A50040;shadow=1;fontColor=#ffffff;" vertex="1" parent="1">
                    <mxGeometry x="90" y="1730" width="183.33" height="110" as="geometry"/>
                </mxCell>
            </root>
        </mxGraphModel>
    </diagram>
</mxfile>